<svg xmlns="http://www.w3.org/2000/svg" xmlns:xlink="http://www.w3.org/1999/xlink" width="215" height="20" role="img"
	aria-label="opens with: Visual Studio For Mac">
	<title>opens with: Visual Studio For Mac</title>
	<linearGradient id="s" x2="0" y2="100%">
		<stop offset="0" stop-color="#bbb" stop-opacity=".1" />
		<stop offset="1" stop-opacity=".1" />
	</linearGradient>
	<clipPath id="r">
		<rect width="215" height="20" rx="3" fill="#fff" />
	</clipPath>
	<g clip-path="url(#r)">
		<rect width="86" height="20" fill="#555" />
		<rect x="86" width="129" height="20" fill="#8f61c8" />
		<rect width="215" height="20" fill="url(#s)" />
	</g>
	<g fill="#fff" text-anchor="middle" font-family="Verdana,Geneva,DejaVu Sans,sans-serif" text-rendering="geometricPrecision" font-size="110">
		<svg x="2" y="2" height="16" width="16" xmlns="http://www.w3.org/2000/svg" xmlns:xlink="http://www.w3.org/1999/xlink" id="Layer_1" viewBox="0 0 49.8 52.9" style="enable-background:new 0 0 49.8 52.9;" xml:space="preserve"> <style type="text/css"> .st0{fill:none;} .st1{fill:#FFFFFF;} .st2{fill-rule:evenodd;clip-rule:evenodd;fill:#854CC7;} .st3{fill:#52218A;} .st4{fill:#6C33AF;} .st5{fill:#854CC7;} .st6{fill:#B179F1;} .st7{opacity:0.25;} .st8{fill:url(#SVGID_1_);} </style> <rect x="-10.1" y="-7.8" class="st0" width="70" height="70"/> <g> <path class="st1" d="M30.8,0.8c1.9-0.7,4-0.6,5.7,0.3l9.1,4.6c2.3,1.2,3.8,3.5,3.8,6v29.9c0,2.5-1.5,4.8-3.8,6L36.5,52 c-1.8,0.9-3.9,1-5.7,0.3L5,42.8c-2.7-1-4.5-3.5-4.5-6.3V16.6c0-2.8,1.8-5.3,4.5-6.3L30.8,0.8z"/> </g> <path class="st2" d="M44.6,7.7l-9.1-4.6c-1.2-0.6-2.6-0.7-3.9-0.2L5.8,12.5c-1.8,0.7-3,2.3-3,4.1v19.9c0,1.8,1.1,3.4,3,4.1l25.8,9.6 c1.3,0.5,2.7,0.4,3.9-0.2l9.1-4.6c1.6-0.8,2.5-2.3,2.5-3.9V11.6C47.1,10,46.2,8.5,44.6,7.7z M36.5,1.1c-1.8-0.9-3.9-1-5.7-0.3 L5,10.4c-2.7,1-4.5,3.5-4.5,6.3v19.9c0,2.8,1.8,5.3,4.5,6.3l25.8,9.6c1.9,0.7,4,0.6,5.7-0.3l9.1-4.6c2.3-1.2,3.8-3.5,3.8-6V11.6 c0-2.5-1.5-4.8-3.8-6L36.5,1.1z"/> <path class="st3" d="M12.3,36.5c-0.4,0.4-1,0.4-1.4,0.2l-2.5-1.1c-0.5-0.2-0.9-0.8-0.9-1.3V18.9c0-0.6,0.3-1.1,0.9-1.3l2.5-1.1 c0.5-0.2,1-0.1,1.4,0.2l0.6,0.5c-0.5-0.4-1.2,0-1.2,0.6v17.5c0,0.7,0.7,1,1.2,0.7L12.3,36.5z"/> <g> <path class="st4" d="M8.4,35.6c-0.5-0.2-0.9-0.8-0.9-1.3v-0.1c0,0.8,0.9,1.1,1.5,0.6l22.6-25c0.7-0.7,1.7-0.8,2.5-0.4l7.2,3.5 c0.8,0.4,1.2,1.1,1.2,2v0.1c0-1.2-1.4-1.8-2.3-1.1l-27,22.2l-0.6,0.5c-0.4,0.4-1,0.5-1.5,0.2L8.4,35.6z"/> </g> <g> <path class="st5" d="M8.4,17.5c-0.5,0.2-0.9,0.8-0.9,1.3V19c0-0.8,0.9-1.1,1.5-0.6l22.6,25c0.7,0.7,1.7,0.8,2.5,0.4l7.2-3.5 c0.8-0.4,1.2-1.1,1.2-2v-0.1c0,1.2-1.4,1.8-2.3,1.1l-27-22.2l-0.6-0.5c-0.4-0.4-1-0.5-1.5-0.2L8.4,17.5z"/> </g> <g> <path class="st6" d="M34,43.8c-0.8,0.4-1.8,0.2-2.5-0.4c0.8,0.8,2.2,0.2,2.2-0.9V10.6c0-1.1-1.4-1.7-2.2-0.9 c0.7-0.7,1.6-0.8,2.5-0.4l7.1,3.5c0.8,0.4,1.2,1.1,1.2,2v23.6c0,0.8-0.5,1.6-1.2,2L34,43.8z"/> </g> <g class="st7"> <linearGradient id="SVGID_1_" gradientUnits="userSpaceOnUse" x1="24.94" y1="-87.3515" x2="24.94" y2="-141.043" gradientTransform="matrix(1 0 0 -1 0 -87.638)"> <stop offset="0" style="stop-color:#FFFFFF"/> <stop offset="1" style="stop-color:#FFFFFF;stop-opacity:0"/> </linearGradient> <path class="st8" d="M30.8,0.8c1.9-0.7,4-0.6,5.7,0.3l9.1,4.6c2.3,1.2,3.8,3.5,3.8,6v29.9c0,2.5-1.5,4.8-3.8,6L36.5,52 c-1.8,0.9-3.9,1-5.7,0.3L5,42.8c-2.7-1-4.5-3.5-4.5-6.3V16.6c0-2.8,1.8-5.3,4.5-6.3L30.8,0.8z"/> </g> </svg>
		<text aria-hidden="true" x="525" y="150" fill="#010101" fill-opacity=".3" transform="scale(.1)" textLength="590">opens with</text>
		<text x="525" y="140" transform="scale(.1)" fill="#fff" textLength="590">opens with</text>
		<text aria-hidden="true" x="1495" y="150" fill="#010101" fill-opacity=".3" transform="scale(.1)" textLength="1190">Visual Studio For Mac</text>
		<text x="1495" y="140" transform="scale(.1)" fill="#fff" textLength="1190">Visual Studio For Mac</text>
	</g>
</svg>