<svg xmlns="http://www.w3.org/2000/svg" xmlns:xlink="http://www.w3.org/1999/xlink" width="179" height="20" role="img" aria-label="opens with: JetBrains Rider">
	<title>opens with: JetBrains Rider</title>
	<linearGradient id="s" x2="0" y2="100%">
		<stop offset="0" stop-color="#bbb" stop-opacity=".1" />
		<stop offset="1" stop-opacity=".1" />
	</linearGradient>
	<clipPath id="r">
		<rect width="179" height="20" rx="3" fill="#fff" />
	</clipPath>
	<g clip-path="url(#r)">
		<rect width="86" height="20" fill="#555" />
		<rect x="86" width="93" height="20" fill="#000" />
		<rect width="179" height="20" fill="url(#s)" />
	</g>
	<g fill="#fff" text-anchor="middle" font-family="Verdana,Geneva,DejaVu Sans,sans-serif" text-rendering="geometricPrecision" font-size="110">
		<defs><linearGradient id="rider_rider_svg__a" x1="70.226" y1="27.799" x2="-5.13" y2="63.122" gradientTransform="matrix(1 0 0 -1 0 71.28)" gradientUnits="userSpaceOnUse"><stop offset="0" stop-color="#c90f5e"></stop><stop offset=".221" stop-color="#c90f5e"></stop><stop offset=".236" stop-color="#c90f5e"></stop><stop offset=".356" stop-color="#ca135c"></stop><stop offset=".466" stop-color="#ce1e57"></stop><stop offset=".574" stop-color="#d4314e"></stop><stop offset=".678" stop-color="#dc4b41"></stop><stop offset=".782" stop-color="#e66d31"></stop><stop offset=".883" stop-color="#f3961d"></stop><stop offset=".942" stop-color="#fcb20f"></stop></linearGradient><linearGradient id="rider_rider_svg__b" x1="24.659" y1="61.996" x2="46.048" y2="2.934" gradientTransform="matrix(1 0 0 -1 0 71.28)" gradientUnits="userSpaceOnUse"><stop offset=".042" stop-color="#077cfb"></stop><stop offset=".445" stop-color="#c90f5e"></stop><stop offset=".958" stop-color="#077cfb"></stop></linearGradient><linearGradient id="rider_rider_svg__c" x1="17.396" y1="63.346" x2="33.194" y2="7.201" gradientTransform="matrix(1 0 0 -1 0 71.28)" gradientUnits="userSpaceOnUse"><stop offset=".277" stop-color="#c90f5e"></stop><stop offset=".974" stop-color="#fcb20f"></stop></linearGradient></defs>
		<svg  x="2" y="2" height="16" width="16" xmlns="http://www.w3.org/2000/svg" viewBox="0 0 70 70" id="rider"><path fill="url(#rider_rider_svg__a)" d="M70 27.237L63.391 23.75 20.926 0 3.827 17.921 21.619 41.068 60.537 44.397 70 27.237z"></path><path fill="url(#rider_rider_svg__b)" d="M50.423 16.132L44.271 1.107 27.643 17.471 11.768 50.194 49.411 70 70 57.98 50.423 16.132z"></path><path fill="url(#rider_rider_svg__c)" d="M20.926 0L0 14.095 7.779 62.172 27.848 69.889 53.78 48.823 20.926 0z"></path><g fill="#000" ><path d="M13.302 13.193H56.916V56.806999999999995H13.302z"></path><g fill="#fff"><path d="M17.22741,18.86293h8.39564a7.38416,7.38416,0,0,1,5.34268,1.85358,5.86989,5.86989,0,0,1,1.52648,4.1433h0A5.74339,5.74339,0,0,1,28.567,30.5296l4.47041,6.54206H28.34891L24.42368,31.1838h-3.162v5.88785H17.22741V18.86293h0ZM25.296,27.69471c1.96262,0,3.053-1.09034,3.053-2.61682h0c0-1.74455-1.19938-2.61682-3.162-2.61682H21.15265v5.23365H25.296Z"></path><path d="M36.09034,18.86293H43.2866c5.77882,0,9.70405,3.92523,9.70405,9.15888h0c0,5.12461-3.92523,9.15888-9.70405,9.15888H36.09034V18.86293Zm4.03427,3.59813V33.47352h3.162a5.23727,5.23727,0,0,0,5.56075-5.45171h0a5.26493,5.26493,0,0,0-5.56075-5.56075h-3.162Z"></path></g><path fill="#fff" d="M17.227 48.629H33.582V51.355H17.227z"></path></g></svg>
		<text aria-hidden="true" x="525" y="150" fill="#010101" fill-opacity=".3" transform="scale(.1)" textLength="590">opens with</text>
		<text x="525" y="140" transform="scale(.1)" fill="#fff" textLength="590">opens with</text>
		<text aria-hidden="true" x="1315" y="150" fill="#010101" fill-opacity=".3" transform="scale(.1)" textLength="830">JetBrains Rider</text>
		<text x="1315" y="140" transform="scale(.1)" fill="#fff" textLength="830">JetBrains Rider</text>
	</g>
</svg>